<svg width="26" height="23" viewBox="0 0 26 23" fill="none" xmlns="http://www.w3.org/2000/svg">
<path d="M23.6296 2.43659C22.2512 1.0585 20.424 0.217385 18.4781 0.0651943C16.5322 -0.0869965 14.5959 1.45977 13.0189 2.60672C11.3644 1.3796 9.30515 -0.176841 7.25573 0.0494622C5.20632 0.275766 3.31901 1.268 1.97386 2.82635C0.628711 4.3847 -0.0743573 6.39342 0.00623561 8.44799C0.0868286 10.5026 0.945096 12.4504 2.4082 13.8992L10.4833 21.9645C11.1595 22.6281 12.0702 23 13.0189 23C13.9676 23 14.8784 22.6281 15.5545 21.9645L23.6296 13.8992C25.1478 12.3759 26 10.3155 26 8.16789C26 6.02024 25.1478 3.95984 23.6296 2.43659ZM21.7961 12.1098L13.7211 20.1621C13.6292 20.2547 13.5198 20.3281 13.3993 20.3782C13.2788 20.4283 13.1495 20.4542 13.0189 20.4542C12.8883 20.4542 12.759 20.4283 12.6385 20.3782C12.518 20.3281 12.4086 20.2547 12.3167 20.1621L4.24167 12.0709C3.2219 11.0314 2.65086 9.63504 2.65086 8.18086C2.65086 6.72668 3.2219 5.33032 4.24167 4.29084C5.28084 3.26774 6.68236 2.69407 8.14266 2.69407C9.60297 2.69407 11.0045 4.26774 12.0437 5.29084C12.1645 5.41237 12.3084 5.50884 12.4668 5.57467C12.6253 5.6405 12.7952 5.67439 12.9669 5.67439C13.1385 5.67439 13.3085 5.6405 13.467 5.57467C13.6254 5.50884 13.7692 5.41237 13.8901 5.29084C14.9293 4.26774 16.3308 2.69407 17.7911 2.69407C19.2514 2.69407 20.6529 3.26774 21.6921 4.29084C22.7259 5.3167 23.3157 6.70549 23.3351 8.15971C23.3546 9.61392 22.8021 11.0179 21.7961 12.0709V12.1098Z" fill="#555555"></path>
</svg>
