<svg width="222" height="54" viewBox="0 0 222 54" fill="none" xmlns="http://www.w3.org/2000/svg">
<rect width="221.492" height="54" rx="5" fill="#53C271"></rect>
<path d="M76.1275 30.7969H73.8697V22.4688H76.1275V30.7969ZM74.8932 30.2109C75.8879 30.2214 76.7499 30.2005 77.4791 30.1484C78.2135 30.0911 78.9635 29.9766 79.7291 29.8047L80.026 31.6953C79.2239 31.8724 78.4296 31.9922 77.6432 32.0547C76.8567 32.112 75.94 32.1354 74.8932 32.125H73.8697V30.2109H74.8932ZM85.8385 35.4922H83.7213V21.1484H85.8385V35.4922ZM81.1197 27.4062H77.9088V25.6172H81.1197V27.4062ZM82.776 34.8906H80.6432V21.3984H82.776V34.8906ZM99.2525 35.5312H96.9635V21.1484H99.2525V35.5312ZM91.4088 22.1328C92.1379 22.1328 92.7916 22.3438 93.3697 22.7656C93.9531 23.1875 94.4062 23.7865 94.7291 24.5625C95.0572 25.3385 95.2213 26.2422 95.2213 27.2734C95.2213 28.3151 95.0572 29.224 94.7291 30C94.4062 30.776 93.9531 31.375 93.3697 31.7969C92.7916 32.2188 92.1379 32.4297 91.4088 32.4297C90.6744 32.4297 90.0182 32.2188 89.44 31.7969C88.8619 31.375 88.4062 30.776 88.0728 30C87.7447 29.224 87.5807 28.3151 87.5807 27.2734C87.5807 26.2422 87.7447 25.3385 88.0728 24.5625C88.4062 23.7865 88.8619 23.1875 89.44 22.7656C90.0182 22.3438 90.6744 22.1328 91.4088 22.1328ZM91.4088 24.1719C91.0807 24.1615 90.7916 24.2734 90.5416 24.5078C90.2916 24.7422 90.0989 25.0938 89.9635 25.5625C89.8281 26.0312 89.7603 26.6016 89.7603 27.2734C89.7603 27.9505 89.8281 28.5234 89.9635 28.9922C90.0989 29.4557 90.2916 29.8047 90.5416 30.0391C90.7916 30.2682 91.0807 30.3828 91.4088 30.3828C91.7421 30.3828 92.0312 30.2682 92.276 30.0391C92.526 29.8047 92.7161 29.4557 92.8463 28.9922C92.9817 28.5234 93.0494 27.9505 93.0494 27.2734C93.0494 26.6016 92.9817 26.0312 92.8463 25.5625C92.7161 25.0938 92.5286 24.7422 92.2838 24.5078C92.039 24.2734 91.7473 24.1615 91.4088 24.1719ZM113.19 35.5312H110.956V21.1484H113.19V35.5312ZM111.588 27.9375H107.831V26.125H111.588V27.9375ZM103.776 25.6562H106.338V22.2656H108.549V32.1953H101.542V22.2656H103.776V25.6562ZM106.338 30.4141V27.4062H103.776V30.4141H106.338ZM127.963 33.9609H114.862V32.125H127.963V33.9609ZM122.495 32.8828H120.276V29.5312H122.495V32.8828ZM126.495 26.9297H118.573V29.2344H116.331V25.1875H124.276V23.8438H116.307V22.0547H126.495V26.9297ZM126.831 30.125H116.331V28.3125H126.831V30.125ZM145.385 33.9609H132.284V32.125H145.385V33.9609ZM139.917 32.8828H137.698V29.5312H139.917V32.8828ZM143.917 26.9297H135.995V29.2344H133.753V25.1875H141.698V23.8438H133.729V22.0547H143.917V26.9297ZM144.253 30.125H133.753V28.3125H144.253V30.125ZM156.557 24.2188H147.44V22.4141H156.557V24.2188ZM159.182 33.6797H146.112V31.8594H159.182V33.6797ZM157.62 24.2109C157.62 25.138 157.609 25.901 157.588 26.5C157.573 27.099 157.529 27.7839 157.456 28.5547C157.388 29.3255 157.276 30.1693 157.12 31.0859L154.831 30.9141C154.997 30.0651 155.12 29.263 155.198 28.5078C155.281 27.7526 155.331 27.0677 155.346 26.4531C155.362 25.8385 155.37 25.0911 155.37 24.2109V22.4141H157.62V24.2109ZM171.979 31.4141H169.721V21.1797H171.979V31.4141ZM172.346 35.2734H162.268V33.4688H172.346V35.2734ZM164.549 34.2344H162.268V30.3984H164.549V34.2344ZM164.088 22.0547C164.823 22.0547 165.495 22.2109 166.104 22.5234C166.713 22.8359 167.19 23.2708 167.534 23.8281C167.883 24.3854 168.057 25.0078 168.057 25.6953C168.057 26.3984 167.883 27.0312 167.534 27.5938C167.19 28.151 166.713 28.5885 166.104 28.9062C165.495 29.2188 164.823 29.375 164.088 29.375C163.354 29.375 162.685 29.2188 162.081 28.9062C161.476 28.5885 160.997 28.151 160.643 27.5938C160.294 27.0312 160.12 26.3984 160.12 25.6953C160.12 25.0078 160.294 24.3854 160.643 23.8281C160.997 23.2708 161.476 22.8359 162.081 22.5234C162.685 22.2109 163.354 22.0547 164.088 22.0547ZM164.088 24.0156C163.75 24.0052 163.445 24.0677 163.174 24.2031C162.904 24.3333 162.693 24.526 162.542 24.7812C162.391 25.0365 162.315 25.3411 162.315 25.6953C162.315 26.0547 162.391 26.3672 162.542 26.6328C162.693 26.8932 162.904 27.0885 163.174 27.2188C163.445 27.349 163.75 27.4141 164.088 27.4141C164.422 27.4141 164.719 27.349 164.979 27.2188C165.245 27.0885 165.453 26.8932 165.604 26.6328C165.755 26.3672 165.831 26.0547 165.831 25.6953C165.831 25.3411 165.755 25.0365 165.604 24.7812C165.453 24.526 165.245 24.3333 164.979 24.2031C164.719 24.0677 164.422 24.0052 164.088 24.0156Z" fill="white"></path>
<path d="M57.5431 28.4928L52.3833 21H48.1069V35H52.5868V27.5072L57.7467 35H62.023V21H57.5431V28.4928Z" fill="white"></path>
</svg>
