<svg width="17" height="14" viewBox="0 0 17 14" fill="none" xmlns="http://www.w3.org/2000/svg">
<path fill-rule="evenodd" clip-rule="evenodd" d="M5.1 0.000439254C4.19826 0.000439254 3.33346 0.369176 2.69584 1.02553C2.05821 1.68189 1.7 2.5721 1.7 3.50033C1.7 4.42856 2.05821 5.31877 2.69584 5.97513C3.33346 6.63148 4.19826 7.00022 5.1 7.00022C6.00174 7.00022 6.86654 6.63148 7.50416 5.97513C8.14179 5.31877 8.5 4.42856 8.5 3.50033C8.5 2.5721 8.14179 1.68189 7.50416 1.02553C6.86654 0.369176 6.00174 0.000439254 5.1 0.000439254ZM3.4 7.87519C2.49826 7.87519 1.63346 8.24393 0.995837 8.90029C0.358213 9.55664 0 10.4469 0 11.3751V12.2501C0 12.7142 0.179107 13.1593 0.497918 13.4875C0.81673 13.8156 1.24913 14 1.7 14H8.5C8.95087 14 9.38327 13.8156 9.70208 13.4875C10.0209 13.1593 10.2 12.7142 10.2 12.2501V11.3751C10.2 10.4469 9.84179 9.55664 9.20416 8.90029C8.56654 8.24393 7.70174 7.87519 6.8 7.87519H3.4ZM9.5625 6.04212C9.9688 5.28965 10.2 4.42343 10.2 3.50033C10.2002 2.61087 9.98082 1.73594 9.5625 0.957659C10.0451 0.487562 10.651 0.173344 11.3053 0.0538379C11.9595 -0.0656681 12.6334 0.0147764 13.2437 0.285229C13.854 0.555683 14.374 1.00429 14.7393 1.57561C15.1046 2.14693 15.2993 2.81591 15.2993 3.49989C15.2993 4.18387 15.1046 4.85286 14.7393 5.42418C14.374 5.99549 13.854 6.4441 13.2437 6.71455C12.6334 6.98501 11.9595 7.06545 11.3053 6.94595C10.651 6.82644 10.0451 6.51222 9.5625 6.04212ZM11.4461 14C11.7351 13.4855 11.9009 12.8879 11.9009 12.2501V11.3751C11.9024 10.0834 11.4398 8.83681 10.602 7.87519H13.6C14.5017 7.87519 15.3665 8.24393 16.0042 8.90029C16.6418 9.55664 17 10.4469 17 11.3751V12.2501C17 12.7142 16.8209 13.1593 16.5021 13.4875C16.1833 13.8156 15.7509 14 15.3 14H11.4461Z" fill="#555555"></path>
</svg>
