<svg width="171" height="23" viewBox="0 0 171 23" fill="none" xmlns="http://www.w3.org/2000/svg">
<path d="M0.137939 0.789062H8.42896C10.0305 0.789062 11.3977 1.07227 12.5305 1.63867C13.6731 2.19531 14.5422 2.99609 15.1379 4.04102C15.7336 5.08594 16.0315 6.30664 16.0315 7.70312C16.0315 9.08984 15.7288 10.2959 15.1233 11.3213C14.5276 12.3369 13.6487 13.1182 12.4866 13.665C11.3245 14.2021 9.93774 14.4707 8.32642 14.4707H2.71606V10.8818H7.63794C8.51685 10.8818 9.2395 10.7646 9.80591 10.5303C10.3723 10.2861 10.7971 9.92969 11.0803 9.46094C11.3635 8.99219 11.5051 8.40625 11.5051 7.70312C11.5051 6.98047 11.3635 6.375 11.0803 5.88672C10.7971 5.39844 10.3674 5.03223 9.79126 4.78809C9.21509 4.53418 8.49243 4.40723 7.62329 4.40723H4.53247V22H0.137939V0.789062ZM16.7932 22H11.9006L6.75903 12.3613H11.5198L16.7932 22ZM19.093 0.789062H33.3313V4.42188H23.4875V9.57812H32.5842V13.1963H23.4875V18.3672H33.3606V22H19.093V0.789062ZM45.6213 16.9609H45.8264L50.9973 0.789062H55.8899L48.551 22H42.8967L35.5725 0.789062H40.4504L45.6213 16.9609ZM62.6868 22H58.2922V0.789062H62.6868V22ZM66.2903 0.789062H80.5286V4.42188H70.6848V9.57812H79.7815V13.1963H70.6848V18.3672H80.5579V22H66.2903V0.789062ZM82.6379 0.789062H87.428L90.9875 15.6133H91.178L95.0598 0.789062H99.22L103.116 15.6572H103.292L106.852 0.789062H111.642L105.592 22H101.271L97.2278 7.99609H97.0667L93.009 22H88.7024L82.6379 0.789062ZM119.581 0.789062H123.976V10.1934H124.254L131.959 0.789062H137.262L129.337 10.2812L137.35 22H132.062L126.188 13.2256L123.976 15.9355V22H119.581V0.789062ZM143.839 22H139.445V0.789062H143.839V22ZM152.863 0.789062L158.766 15.1592H159.015L164.904 0.789062H170.338V22H166.061V8.09863H165.885L160.348 21.8975H157.404L151.881 8.06934H151.705V22H147.443V0.789062H152.863Z" fill="#555555"/>
<path d="M113.546 22.2637C113.107 22.2637 112.697 22.1514 112.316 21.9268C111.935 21.6924 111.637 21.3896 111.422 21.0186C111.207 20.6377 111.1 20.2275 111.1 19.7881C111.1 19.3584 111.207 18.958 111.422 18.5869C111.637 18.2061 111.935 17.9082 112.316 17.6934C112.697 17.4785 113.107 17.3711 113.546 17.3711C113.986 17.3711 114.391 17.4785 114.762 17.6934C115.143 17.9082 115.446 18.2061 115.67 18.5869C115.895 18.958 116.007 19.3584 116.007 19.7881C116.007 20.2275 115.895 20.6377 115.67 21.0186C115.446 21.3896 115.143 21.6924 114.762 21.9268C114.391 22.1514 113.986 22.2637 113.546 22.2637Z" fill="#3CB15A"/>
</svg>
