<svg width="83" height="28" viewBox="0 0 83 28" fill="none" xmlns="http://www.w3.org/2000/svg">
<path d="M21.6506 27.9883H16.9631V0.800781H21.6506V27.9883ZM2.65161 17.9541C5.21997 17.9736 7.50024 17.9199 9.49243 17.793C11.4846 17.666 13.4768 17.4365 15.469 17.1045L15.8645 20.8545C13.9504 21.2256 11.9827 21.4746 9.96118 21.6016C7.9397 21.7285 5.50317 21.792 2.65161 21.792H0.117432V17.9541H2.65161ZM13.1399 13.8672H4.98071V19.4043H0.117432V10.2344H8.33521V6.68945H0.117432V2.9248H13.1399V13.8672ZM34.5559 27.9004H29.7659V16.4746H34.5559V27.9004ZM44.2678 27.9004H39.5803V16.4746H44.2678V27.9004ZM49.3948 19.5947H24.6682V15.874H49.3948V19.5947ZM31.9924 4.4043H41.9387V1.79688H46.6262V13.7061H27.3782V1.79688H31.9924V4.4043ZM41.9387 9.98535V8.05176H31.9924V9.98535H41.9387ZM74.385 2.00195C74.385 4.6875 73.97 7.01172 73.1399 8.97461C72.3196 10.9375 70.9719 12.6172 69.0969 14.0137C67.2317 15.4004 64.7366 16.5234 61.6116 17.3828L59.9417 13.7061C62.4026 13.0615 64.3313 12.2754 65.7278 11.3477C67.1243 10.4199 68.0959 9.37012 68.6428 8.19824C69.1897 7.0166 69.4631 5.64941 69.4631 4.09668V2.00195H74.385ZM72.3049 5.72266H61.3479V2.00195H72.3049V5.72266ZM60.6155 10.9668L59.9856 7.31934L69.9172 7.04102V10.2637L60.6155 10.9668ZM82.4709 16.416H77.7542V0.859375H82.4709V16.416ZM82.4709 27.6514H64.3948V17.4121H82.4709V27.6514ZM68.9944 23.9014H77.8713V21.0742H68.9944V23.9014Z" fill="black"/>
<path d="M54.5071 25.3076C53.9895 25.3076 53.511 25.1807 53.0715 24.9268C52.6321 24.6631 52.2854 24.3164 52.0315 23.8867C51.7874 23.457 51.6653 22.9834 51.6653 22.4658C51.6653 21.9678 51.7874 21.5039 52.0315 21.0742C52.2854 20.6445 52.6321 20.3076 53.0715 20.0635C53.511 19.8096 53.9895 19.6826 54.5071 19.6826C55.0051 19.6826 55.469 19.8096 55.8987 20.0635C56.3284 20.3076 56.675 20.6445 56.9387 21.0742C57.2122 21.5039 57.3489 21.9678 57.3489 22.4658C57.3489 22.9834 57.2122 23.457 56.9387 23.8867C56.675 24.3164 56.3284 24.6631 55.8987 24.9268C55.469 25.1807 55.0051 25.3076 54.5071 25.3076Z" fill="#3CB15A"/>
</svg>
