<svg width="19" height="21" viewBox="0 0 19 21" fill="none" xmlns="http://www.w3.org/2000/svg">
<path d="M15.3497 13.5084C14.8032 13.5112 14.2643 13.6399 13.7728 13.885C13.2813 14.13 12.8496 14.4852 12.5097 14.9243L7.17295 11.5007C7.36745 10.8565 7.36745 10.167 7.17295 9.52289L12.5097 6.09924C13.0514 6.7875 13.813 7.25682 14.6596 7.42406C15.5062 7.59129 16.3831 7.44565 17.1351 7.01293C17.887 6.58021 18.4655 5.88835 18.7679 5.05989C19.0704 4.23144 19.0773 3.31987 18.7875 2.48667C18.4977 1.65347 17.9299 0.952415 17.1846 0.507693C16.4393 0.0629705 15.5647 -0.0967132 14.7157 0.0569287C13.8666 0.210571 13.098 0.667621 12.5459 1.34712C11.9938 2.02661 11.6939 2.88469 11.6994 3.76936C11.7028 4.10436 11.7519 4.43723 11.8454 4.75824L6.50859 8.1819C6.03744 7.57327 5.39344 7.13012 4.66587 6.91387C3.9383 6.69762 3.16319 6.71899 2.44798 6.97502C1.73277 7.23104 1.11289 7.70903 0.674268 8.34275C0.235644 8.97646 0 9.73449 0 10.5118C0 11.2891 0.235644 12.0471 0.674268 12.6808C1.11289 13.3145 1.73277 13.7925 2.44798 14.0485C3.16319 14.3046 3.9383 14.3259 4.66587 14.1097C5.39344 13.8934 6.03744 13.4503 6.50859 12.8417L11.8454 16.2653C11.7519 16.5863 11.7028 16.9192 11.6994 17.2542C11.6994 17.9951 11.9134 18.7193 12.3145 19.3353C12.7156 19.9512 13.2857 20.4314 13.9528 20.7149C14.6198 20.9984 15.3537 21.0726 16.0618 20.928C16.7699 20.7835 17.4203 20.4267 17.9308 19.9029C18.4414 19.379 18.789 18.7116 18.9299 17.985C19.0707 17.2584 18.9984 16.5052 18.7221 15.8208C18.4458 15.1363 17.978 14.5513 17.3777 14.1397C16.7774 13.7281 16.0716 13.5084 15.3497 13.5084ZM15.3497 1.52188C15.7829 1.52188 16.2063 1.65369 16.5665 1.90065C16.9267 2.1476 17.2074 2.49861 17.3731 2.90928C17.5389 3.31996 17.5823 3.77185 17.4978 4.20782C17.4133 4.64378 17.2047 5.04425 16.8984 5.35856C16.5921 5.67288 16.2018 5.88693 15.777 5.97365C15.3521 6.06037 14.9117 6.01586 14.5115 5.84575C14.1113 5.67565 13.7693 5.38758 13.5286 5.01799C13.2879 4.64839 13.1595 4.21386 13.1595 3.76936C13.1595 3.17329 13.3902 2.60163 13.801 2.18015C14.2117 1.75867 14.7688 1.52188 15.3497 1.52188ZM3.66864 12.7593C3.23546 12.7593 2.81201 12.6274 2.45183 12.3805C2.09166 12.1335 1.81093 11.7825 1.64516 11.3719C1.47939 10.9612 1.43602 10.5093 1.52053 10.0733C1.60504 9.63735 1.81363 9.23689 2.11994 8.92258C2.42624 8.60826 2.8165 8.39421 3.24135 8.30749C3.66621 8.22077 4.10658 8.26528 4.50679 8.43538C4.907 8.60549 5.24906 8.89356 5.48972 9.26315C5.73038 9.63275 5.85883 10.0673 5.85883 10.5118C5.85883 11.1078 5.62808 11.6795 5.21734 12.101C4.8066 12.5225 4.24951 12.7593 3.66864 12.7593ZM15.3497 19.5017C14.9165 19.5017 14.493 19.3699 14.1329 19.1229C13.7727 18.876 13.492 18.525 13.3262 18.1143C13.1604 17.7036 13.1171 17.2517 13.2016 16.8157C13.2861 16.3798 13.4947 15.9793 13.801 15.665C14.1073 15.3507 14.4975 15.1366 14.9224 15.0499C15.3472 14.9632 15.7876 15.0077 16.1878 15.1778C16.588 15.3479 16.9301 15.636 17.1708 16.0056C17.4114 16.3752 17.5399 16.8097 17.5399 17.2542C17.5399 17.8503 17.3091 18.4219 16.8984 18.8434C16.4876 19.2649 15.9305 19.5017 15.3497 19.5017Z" fill="#555555"/>
</svg>
