<svg width="33" height="33" fill="none" xmlns="http://www.w3.org/2000/svg"><path fill-rule="evenodd" clip-rule="evenodd" d="M16.5 29.7a13.15 13.15 0 0 1-8.254-2.897l.004.001v-1.127c0-2.96 2.462-5.362 5.5-5.362h5.5c3.036 0 5.5 2.402 5.5 5.362v1.127A13.15 13.15 0 0 1 16.5 29.7ZM0 16.5C0 7.387 7.387 0 16.5 0S33 7.387 33 16.5c0 9.075-7.326 16.439-16.388 16.5h-.228C7.322 32.937 0 25.575 0 16.5Zm16.5-8.25c-3.036 0-5.5 2.4-5.5 5.363 0 2.961 2.462 5.362 5.5 5.362 3.036 0 5.5-2.4 5.5-5.363 0-2.961-2.463-5.362-5.5-5.362Z" fill="#B0B0B0"/></svg>